<?xml version="1.0" encoding="UTF-8"?><svg id="Layer_1" xmlns="http://www.w3.org/2000/svg" viewBox="0 0 150.22 17.04"><path d="M36.56,3.98v9.12c0,2.33-1.03,3.86-3.48,3.86h-16.37c-2.45,0-3.48-1.54-3.48-3.86v-1.78c0-.84-.19-1.03-.77-1.03h-7.75c-.58,0-.77.19-.77,1.03v5.64H0v-6.24c0-2.33,1.03-3.86,3.48-3.89l9-.05c.26-.1.36-.36.36-.98v-1.03c0-.84-.19-1.03-.74-1.03H0V.17h13.32c2.42,0,3.46,1.54,3.46,3.86v1.54c0,1.27-.26,2.26-.94,2.86.94.58,1.32,1.66,1.32,3.14v.79c0,.84.19,1.03.77,1.03h13.92c.58,0,.77-.19.77-1.03v-7.66c0-.82-.19-1.01-.77-1.01h-8.14c-.58,0-.77.19-.77,1.01v6.72h-3.94V3.98c0-2.33,1.03-3.86,3.48-3.86h10.58c2.45,0,3.48,1.54,3.48,3.86Z"/><path d="M55.73,11.57l-.02,1.78c0,2.28-.89,3.62-3.31,3.62h-13.71v-6.24c0-2.33,1.03-3.89,3.48-3.89l8.74-.05c.29-.12.38-.38.38-.98v-1.06c0-.84-.19-1.03-.77-1.03h-11.21V.17h12.43c2.45,0,3.48,1.51,3.48,3.86v1.51c0,1.27-.26,2.21-.89,2.83.98.55,1.39,1.63,1.39,3.19ZM51.79,11.3c0-.84-.19-1.03-.77-1.03h-7.63c-.58,0-.77.19-.77,1.03v2.21h8.38c.58,0,.77-.19.77-1.03l.02-1.18Z"/><path d="M75.38,13.13c0,2.3-1.03,3.86-3.48,3.86h-10.58c-2.45,0-3.48-1.54-3.48-3.86V4.01c0-2.33,1.03-3.86,3.48-3.86h10.58c2.42,0,3.48,1.54,3.48,3.86v9.12ZM71.45,4.75c0-.84-.19-1.03-.77-1.03h-8.14c-.58,0-.77.19-.77,1.03v7.66c0,.82.19,1.01.77,1.01h8.14c.58,0,.77-.19.77-1.01v-7.66Z"/><path d="M85.75,5.16c-.02.08-.03.15-.04.22s-.03.14-.06.22v5.74c.03.08.05.16.06.23,0,.07.02.15.04.23.13.22.31.47.55.74.67.64,1.45.96,2.33.96h1.32c1.02,0,1.58.57,1.66,1.7v1.75h-2.17c-.22,0-.45,0-.71-.01-.26,0-.49-.02-.71-.04-.22-.02-.37-.03-.47-.05-.53-.08-1.02-.21-1.49-.38v-.02c-.27-.1-.55-.23-.84-.41-.29-.18-.54-.35-.77-.53l-.05-.05-.05.05c-.24.19-.5.37-.77.54-.27.17-.55.3-.84.4v.02c-.46.18-.96.3-1.49.38-.1.02-.25.03-.47.05s-.45.03-.71.04c-.26,0-.49.01-.71.01h-2.17v-1.75c.08-1.14.63-1.7,1.66-1.7h1.32c.88,0,1.66-.32,2.33-.96.24-.26.43-.5.58-.74,0-.14.02-.29.07-.43v-5.76c-.05-.14-.07-.29-.07-.43-.34-.53-.74-.94-1.2-1.25-.46-.3-1.03-.46-1.7-.46h-1.32c-1.02,0-1.58-.57-1.66-1.7V0h2.17c.22,0,.45,0,.71.01.26,0,.49.02.71.02.22,0,.37.02.47.04.42.08.81.18,1.19.31.38.13.75.3,1.12.5h.03c.13.08.26.16.38.25.13.09.26.19.38.3l.05.05.05-.05c.13-.11.26-.21.38-.3.13-.09.26-.17.38-.25h.03c.37-.21.74-.38,1.12-.5.38-.13.77-.23,1.19-.31.1-.02.25-.03.47-.04.21,0,.45-.02.71-.02.26,0,.49-.01.71-.01h2.17v1.75c-.08,1.14-.63,1.7-1.66,1.7h-1.32c-.61,0-1.17.15-1.68.44-.51.3-.91.72-1.2,1.26Z"/><path d="M110.57,11.54v5.4h-3.94v-5.64c0-.84-.19-1.03-.77-1.03v-.02h-7.75c-.58.02-.77.22-.77,1.06v5.64h-3.94v-6.24c0-2.33,1.03-3.86,3.48-3.89l9-.05c.26-.1.36-.38.36-.98v-1.03c0-.84-.19-1.03-.74-1.03h-12.1V.14h13.32c2.42,0,3.46,1.54,3.46,3.86v1.54c0,1.27-.26,2.26-.94,2.86.94.58,1.32,1.63,1.32,3.14Z"/><path d="M112.92,16.94V.14h3.94v16.8h-3.94Z"/><path d="M133.73,13.27c-.05,2.47-1.54,3.77-3.98,3.77h-10.95v-3.58h10.23c.58,0,.77-.1.77-.53,0-2.78-10.37-1.87-10.37-8.88,0-2.35,1.66-3.89,4.08-3.89h26.71v3.58h-25.73c-.79,0-1.13.22-1.13.79,0,3.43,10.23,2.5,10.37,8.62v.12ZM150.22,13.32v3.58l-15.38.1v-6.26h-.02c0-2.33,1.06-3.86,3.48-3.89l10.49-.07v3.46l-9.27.05c-.46,0-.67.14-.74.65v2.47l11.45-.07Z"/></svg>